<svg xmlns="http://www.w3.org/2000/svg" height="130.73" viewBox="0 0 249.99974 130.73403" width="250"><g transform="matrix(1.25 0 0 -1.25 -58.364 846.37)"><g transform="matrix(.94381 0 0 .94381 8.9023 35.769)"><g><path d="m247.1 629.35v11.599c-5.951 4.627-12.345 4.799-18.978 3.046-15.401-4.071-32.086-18.465-47.503-11.244-1.001 0.422-1.281 0.562-2.339 1.076 20.212-17.085 38.927 4.131 58.695-2.093 3.507 0.436 6.902-0.108 10.125-2.384" fill="#e31937"/><path d="m247.1 629.35c-3.223 2.276-6.618 2.82-10.125 2.384-12.023-1.498-25.366-14.515-37.608-8.782-0.727 0.307-0.932 0.409-1.7 0.782 16.753-14.16 32.087 7.877 48.758-4.742 0.447 2.838 0.675 5.944 0.675 9.356v1.002z" fill="#ef4135"/><path d="m123.02 0.0019531c-12.479 0.00625-22.711 3.297-29.881 9.1133-7.1725 5.8087-11.172 14.165-11.158 23.799 0.02625 20.734 18.638 26.042 24.316 27.652l22.723 6.4512c3.2988 0.95875 6.0687 1.9652 7.8262 3.2227 1.7488 1.3038 2.5603 2.5581 2.6016 4.8594-0.185 6.7625-3.5105 10.145-15.449 10.402-18.118-0.18375-17.997-11.828-18.529-16.803l-0.0957-1.5586h-27.115l0.08008 1.7324c1.1162 27.055 18.72 38.996 44.139 38.996h0.68554c15.544 0 26.441-3.9702 33.457-10.441 7.0212-6.48 9.9708-15.339 9.957-24.566 0.06-16.725-11.56-25.024-24.2-28.369l-27.189-7.4277c-5.3238-1.6988-6.4834-2.6833-6.6309-6.3945 0.04-3.2638 1.4894-5.0512 3.877-6.4199 2.3825-1.33 5.7345-1.8891 8.7695-1.8828 14.429 0.21625 14.496 8.5327 15.312 13.396l0.16797 1.4648h26.479l-0.0898-1.7324c-0.995-23.78-16.845-35.685-40.049-35.496zm50.385 2.2461v40.686c1.61-0.2125 3.2338-0.51609 4.875-0.90234v-35.045h17.383v28.826c1.62-0.715 3.2436-1.4538 4.8711-2.2051v-31.359h-27.129zm62.225 0v19.08c1.1162-0.0975 2.2341-0.16617 3.3516-0.16992 0.0625-0.0025 0.11164-0.0039 0.15039-0.0039 0.46125-0.0012 0.92086 0.0125 1.3809 0.03125v-14.199h17.379v23.996c-30.75-25.076-69.26 28.338-103.69 12.209-1.5525-0.6525-1.987-0.86976-3.627-1.666 28.809 24.35 55.654-1.4864 83.609 1.6836 8.2912-2.1912 16.284-1.9771 23.723 3.8066v15.752c0 4.265-0.285 8.1478-0.84375 11.695-0.48375 3.0788-1.1791 5.8977-2.1016 8.459-0.0263 0.07125-0.0512 0.13898-0.0762 0.20898-0.29375 0.80125-0.61046 1.5794-0.94921 2.3281-5.495 12.114-16.938 17.674-35.832 17.674-27.832 0-39.516-12.046-39.795-39.363-1.6312-0.80625-3.2637-1.7676-4.8887-2.8926v1.8906c-0.006 15.069 3.3374 26.429 10.795 34.025 7.46 7.5788 18.73 11.084 33.889 11.076h0.041c15.131 0 26.384-3.5037 33.838-11.076 4.1725-4.2525 7.0566-9.6885 8.7891-16.291-0.004 0.0012-0.006 0.002-0.01 0.002 1.3662-5.1888 2.0201-11.1 2.0176-17.736v-60.52h-27.135zm-192.46 0.0019v68.783c0.01875 3.6938-0.1225 7.1237-1.1875 9.2949-1.08 2.0975-2.6306 3.4123-7.1094 3.4961-5.105-0.12875-6.6847-1.3363-7.8984-4.2051-1.1862-2.98-1.2609-8.1749-1.2422-15.17v-1.6523h-25.727v9.6387c0 9.797 2.4426 18.665 8.1426 25.127 5.685 6.4738 14.556 10.318 26.725 10.307h0.07227c12.026 0 20.999-3.3846 26.875-9.8809 5.8762-6.51 8.4863-15.861 8.4863-27.373v-68.365h-27.137zm79.857 2.4941c19.484 0 33.497 9.39 35.182 27.75h-17.24c-0.8425-4.205-2.9417-14.857-19.762-14.857-7.2888 0-17.52 3.0852-17.52 13.035 0 6.5862 3.3609 9.1109 15.836 12.475l16.119 4.3438c8.13 2.2412 26.072 6.4486 26.072 25.371 0 19.198-14.437 30.271-38.547 30.271-26.209 0-38.822-13.455-39.943-31.254h17.52c0.7 4.485 3.0831 18.361 23.266 18.361 11.071 0 20.324-4.4856 20.324-15.141 0-4.2038-0.4239-8.6895-13.879-12.613l-22.844-6.5859c-9.5313-2.805-20.744-7.5688-20.744-22.986 0-13.455 9.5327-28.17 36.16-28.17zm-74.977 2.2422h17.381v63.49c0 20.883-8.6922 32.656-30.555 32.656-20.604 0-29.994-11.635-29.994-31.537v-4.0625h15.979v0.55859c0 8.4125-0.000625 20.463 14.016 20.463 11.494 0 13.174-7.7052 13.174-17.521v-64.047zm191.79 65.465c-1.6637 0.1375-3.3584 0.42258-5.0859 0.79883-0.4975 2.2312-1.2229 4.164-2.2754 5.709-2.4 3.52-6.452 5.666-14.377 5.6973-7.9338-0.03125-11.981-2.1773-14.385-5.6973-0.6375-0.93375-1.1549-2.0106-1.5762-3.2031-1.9288-0.79-3.8562-1.8445-5.7637-3.207 1.8538 10.789 7.7496 16.848 21.725 16.848 14.011 0 19.901-6.0941 21.738-16.945zm-180.33 53.449c-1.6762 0-2.9438 0.61484-3.7988 1.8398-0.6675 0.95625-1 2.1048-1 3.4473 0 1.4875 0.38992 2.7176 1.1699 3.6914 0.87375 1.01 2.0741 1.5156 3.6016 1.5156 1.6375 0 2.8968-0.57867 3.7793-1.7324 0.75375-0.98125 1.1289-2.2142 1.1289-3.6992 0-1.3688-0.32883-2.4936-0.98633-3.3711-0.8425-1.1275-2.1408-1.6914-3.8945-1.6914zm-30.283 0.002c-1.455 0-2.597 0.50859-3.4258 1.5273-0.76625 0.93875-1.1504 2.1405-1.1504 3.6055 0 1.9312 0.51055 3.3582 1.5293 4.2832 0.77625 0.7 1.733 1.0488 2.873 1.0488 1.3238 0 2.3762-0.42484 3.1562-1.2773 0.65-0.7075 1.0322-1.5859 1.1484-2.6309h-1.3125c-0.13125 0.65375-0.33352 1.182-0.60352 1.582-0.50875 0.7625-1.2496 1.1426-2.2246 1.1426-1.0562 0-1.8542-0.36094-2.3867-1.0859-0.53375-0.72375-0.80078-1.6695-0.80078-2.832 0-1.4212 0.29352-2.4759 0.88477-3.1621 0.59125-0.68875 1.3681-1.0312 2.3281-1.0312 0.7875 0 1.3997 0.18485 1.8359 0.5586 0.435 0.375 0.7268 0.88148 0.87305 1.5215h1.3105c-0.075-0.84125-0.45758-1.5953-1.1426-2.2578-0.685-0.6625-1.6488-0.99219-2.8926-0.99219zm19.609 0.0195c-1.1012 0-1.9527 0.28688-2.5527 0.85938-0.60125 0.57125-0.90039 1.3041-0.90039 2.1953 0 0.825 0.30476 1.4463 0.91602 1.8613 0.35375 0.2375 0.95539 0.45484 1.8066 0.65234l1.3047 0.30664c0.70625 0.1675 1.2254 0.36219 1.5566 0.58594 0.32875 0.23125 0.49219 0.61625 0.49219 1.1562 0 0.72125-0.38445 1.222-1.1582 1.502-0.39875 0.145-0.84312 0.2168-1.3281 0.2168-1.0863 0-1.8447-0.32883-2.2734-0.98633-0.22625-0.3525-0.35352-0.81055-0.38477-1.373h-1.2637c-0.01375 1.0725 0.3207 1.9206 1.002 2.5469 0.68125 0.63125 1.6244 0.94726 2.8281 0.94726 1.0325 0 1.9407-0.23648 2.7207-0.70898 0.78-0.47375 1.1699-1.2594 1.1699-2.3594 0-0.8825-0.30672-1.5577-0.91797-2.0215-0.35375-0.26625-0.85586-0.47641-1.5059-0.62891l-1.3496-0.31835c-0.9075-0.21501-1.4912-0.39477-1.75-0.54102-0.3925-0.225-0.58789-0.58016-0.58789-1.0664 0-0.44125 0.16555-0.83031 0.49805-1.1641 0.3325-0.33375 0.87938-0.5 1.6406-0.5 0.94125 0 1.6082 0.25984 2.002 0.77734 0.21125 0.28375 0.35102 0.69141 0.41602 1.2227h1.2637c0-1.1038-0.35625-1.9057-1.0625-2.4082-0.70875-0.50375-1.5695-0.75391-2.582-0.75391zm76.545 0c-1.1012 0-1.9527 0.28688-2.5527 0.85938-0.60125 0.57125-0.90039 1.3041-0.90039 2.1953 0 0.825 0.30601 1.4463 0.91601 1.8613 0.355 0.2375 0.9561 0.45484 1.8086 0.65234l1.3008 0.30664c0.7075 0.1675 1.2293 0.36219 1.5605 0.58594 0.3275 0.23125 0.49024 0.61625 0.49024 1.1562 0 0.72125-0.38641 1.222-1.1602 1.502-0.39875 0.145-0.84242 0.2168-1.3262 0.2168-1.0862 0-1.844-0.32883-2.2715-0.98633-0.2275-0.3525-0.35672-0.81055-0.38672-1.373h-1.2637c-0.0125 1.0725 0.32071 1.9206 1.002 2.5469 0.68125 0.63125 1.6244 0.94726 2.8281 0.94726 1.0325 0 1.9388-0.23648 2.7188-0.70898 0.78-0.47375 1.1699-1.2594 1.1699-2.3594 0-0.88249-0.30476-1.5577-0.91601-2.0215-0.35375-0.26625-0.85586-0.47641-1.5059-0.62891l-1.3516-0.31835c-0.9075-0.21501-1.4893-0.39477-1.748-0.54102-0.39125-0.225-0.58789-0.58016-0.58789-1.0664 0-0.44125 0.16555-0.83031 0.49805-1.1641 0.3325-0.33375 0.88062-0.5 1.6406-0.5 0.9425 0 1.6082 0.25984 2.002 0.77734 0.21125 0.28375 0.35032 0.69141 0.41407 1.2227h1.2637c0-1.1038-0.35305-1.9057-1.0606-2.4082-0.70875-0.50375-1.5695-0.75391-2.582-0.75391zm105.38 0c-1.1 0-1.9527 0.28688-2.5527 0.85938-0.60125 0.57125-0.90039 1.3041-0.90039 2.1953 0 0.825 0.30476 1.4463 0.91601 1.8613 0.35375 0.2375 0.95414 0.45484 1.8066 0.65234l1.3047 0.30664c0.70625 0.1675 1.2273 0.36219 1.5586 0.58594 0.32625 0.23125 0.49024 0.61625 0.49024 1.1562 0 0.72125-0.38571 1.222-1.1582 1.502-0.4 0.145-0.84257 0.2168-1.3301 0.2168-1.085 0-1.844-0.32883-2.2715-0.98633-0.22625-0.3525-0.35351-0.81055-0.38476-1.373h-1.2617c-0.0137 1.0725 0.32 1.9206 1 2.5469 0.68125 0.63125 1.6237 0.94726 2.8262 0.94726 1.035 0 1.9427-0.23648 2.7227-0.70898 0.78-0.47375 1.1699-1.2594 1.1699-2.3594 0-0.88249-0.30672-1.5577-0.91797-2.0215-0.35375-0.26625-0.85586-0.47641-1.5059-0.62891l-1.3496-0.31835c-0.90875-0.21501-1.4912-0.39477-1.75-0.54102-0.39125-0.225-0.58789-0.58016-0.58789-1.0664 0-0.44125 0.16625-0.83031 0.5-1.1641 0.33125-0.33375 0.87742-0.5 1.6387-0.5 0.94125 0 1.6089 0.25984 2.0039 0.77734 0.21125 0.28375 0.34836 0.69141 0.41211 1.2227h1.2656c0-1.1038-0.355-1.9057-1.0625-2.4082-0.70875-0.50375-1.5695-0.75391-2.582-0.75391zm-219.37 0.25v6.6172c0 0.8375-0.07008 1.4097-0.20508 1.7109-0.22125 0.49125-0.6907 0.73632-1.4082 0.73632-0.51125 0-0.88641-0.1357-1.1289-0.4082-0.24125-0.2725-0.36133-0.67875-0.36133-1.2188v-0.71094h-1.2637v0.71094c0 1.0312 0.26227 1.7486 0.79102 2.1523 0.5275 0.40376 1.1645 0.60352 1.9082 0.60352 1.2912 0 2.167-0.42328 2.627-1.2695 0.24875-0.465 0.37109-1.1163 0.37109-1.9551v-6.9688h-1.3301zm24.266 0v9.9297h1.3105v-3.4609l1.6191-1.5273 3.5566 4.9883h1.7617l-4.332-5.9219 4.2441-4.0078h-1.8809l-4.9688 4.8613v-4.8613h-1.3105zm30.898 0v9.9297h1.2832v-8.0137l5.0273 8.0137h1.5098v-9.9297h-1.2832v8.0234l-4.9531-8.0234h-1.584zm9.8516 0 3.6152 9.9297h1.4277l3.623-9.9297h-1.5078l-2.8184 8.457-2.8535-8.457h-1.4863zm10.791 0v9.9297h1.3594v-9.9297h-1.3594zm4.0977 0v9.9297h6.3262v-1.1816h-4.9824v-8.748h-1.3438zm8.252 0v9.9297h6.3262v-1.1816h-4.9805v-8.748h-1.3457zm8.3828 0v9.9297h7.3066v-1.1816h-5.9961v-3.3672h5.4492v-1.1484h-5.4492v-3.0137h5.8945v-1.2188h-7.2051zm23.014 0v1.1836h3.3476v8.7461h1.3613v-8.7461h3.3438v-1.1836h-8.0527zm16.758 0v1.1836h3.3457v8.7461h1.3613v-8.7461h3.3457v-1.1836h-8.0527zm9.9727 0v9.9297h7.3066v-1.1816h-5.9961v-3.3672h5.4492v-1.1484h-5.4492v-3.0137h5.8945v-1.2188h-7.2051zm14.152 0v5.5781c0 1.2212 0.16484 2.1589 0.49609 2.8164 0.6 1.1988 1.7433 1.8008 3.4258 1.8008s2.8266-0.60203 3.4316-1.8008c0.33125-0.6575 0.49609-1.5952 0.49609-2.8164v-5.5781h-1.3594v6.1387c0 0.715-0.11024 1.2865-0.33399 1.709-0.41375 0.78125-1.1943 1.1699-2.3418 1.1699-0.95875 0-1.6419-0.35883-2.0469-1.0801-0.27125-0.47875-0.40625-1.0788-0.40625-1.7988v-6.1387h-1.3613zm10.459 0v9.9297h1.2852v-8.0137l5.0234 8.0137h1.5117v-9.9297h-1.2852v8.0234l-4.9531-8.0234h-1.582zm10.855 0v9.9297h1.3594v-9.9297h-1.3594zm3.3965 0 3.6172 9.9297h1.4258l3.625-9.9297h-1.5098l-2.8203 8.457-2.8516-8.457h-1.4863zm10.615 0v9.9297h7.3066v-1.1816h-5.9961v-3.3672h5.4492v-1.1484h-5.4492v-3.0137h5.8965v-1.2188h-7.207zm9.8203 0v9.9297h1.3457v-4.2578h2.9766c0.53375 0 0.92703 0.0604 1.1758 0.18164 0.4375 0.22 0.67313 0.65789 0.70313 1.3066l0.0801 1.6543c0.0188 0.38875 0.0389 0.65016 0.0664 0.78516s0.0644 0.24508 0.10938 0.33008h1.6504v-0.22266c-0.2075-0.0888-0.35235-0.29242-0.4336-0.60742-0.05-0.185-0.0812-0.4682-0.0937-0.8457l-0.0488-1.3301c-0.0238-0.57625-0.12993-0.99445-0.32618-1.252-0.19625-0.2575-0.49-0.46485-0.875-0.6211 0.44-0.23125 0.78305-0.53336 1.0293-0.91211 0.245-0.37875 0.36914-0.86468 0.36914-1.4609 0-1.1388-0.45805-1.922-1.373-2.3457-0.48375-0.22125-1.098-0.33203-1.8418-0.33203h-4.5137zm20.482 0v9.9297h1.3594v-9.9297h-1.3594zm3.2656 0v1.1836h3.3457v8.7461h1.3594v-8.7461h3.3457v-1.1836h-8.0508zm9.0742 0 3.7559 5.9297v4h1.3438v-4l3.7617-5.9297h-1.582l-2.8535 4.7734-2.8555-4.7734h-1.5703zm-231.58 0.002-3.7383 9.9297h1.3789l1.0781-2.9746h3.8945l1.0371 2.9746h1.4746l-3.6055-9.9297h-1.5195zm124.45 0-3.7402 9.9297h1.3809l1.0762-2.9746h3.8965l1.0352 2.9746h1.4746l-3.6055-9.9297h-1.5176zm-83.064 0.92579c1.0588 0 1.8939 0.35585 2.5039 1.0684 0.61125 0.71249 0.91602 1.6516 0.91602 2.8203 0 1.1038-0.26492 2.0836-0.79492 2.9336s-1.3873 1.2754-2.5723 1.2754c-1.2475 0-2.1488-0.37781-2.7051-1.1328-0.5575-0.755-0.83594-1.6852-0.83594-2.7852 0-1.3762 0.32391-2.4161 0.97266-3.1211 0.64875-0.70625 1.4881-1.0586 2.5156-1.0586zm158.72 0.22851h3.1973c0.44625 0 0.80157 0.0681 1.0703 0.20313 0.49875 0.2575 0.74804 0.73781 0.74804 1.4453 0 0.6575-0.17765 1.1127-0.53515 1.3652s-0.84258 0.37891-1.4551 0.37891h-3.0254v-3.3926zm-199.4 0.31836 1.5293 4.3867h-3.1172l1.5879-4.3867zm124.45 0 1.5273 4.3867h-3.1172l1.5898-4.3867z" transform="matrix(.8 0 0 -.8 40.785 678.56)" fill="#c00"/></g></g></g></svg>
